<?xml version="1.0" encoding="UTF-8"?>
<svg id="Layer_2" data-name="Layer 2" xmlns="http://www.w3.org/2000/svg" viewBox="0 0 198.72 211.53">
  <defs>
    <style>
      .cls-1 {
        fill: #056dd1;
      }

      .cls-2 {
        fill: #0f2a4f;
      }
    </style>
  </defs>
  <g id="Layer_1-2" data-name="Layer 1">
    <g>
      <path class="cls-2" d="M123.74,200.96c-3.53-1.07-6.34-4.64-6.6-8.32-.09-1.24.14-2.5.07-3.72-.39-6.85-6.45-12.12-13.31-11.42-7.6.78-12.53,8.17-10.4,15.53,1.58,5.47,7.07,9.21,12.75,8.57l-8.01-8.11c3.52-3.64,9.66-3.73,13.35-.29,4.52,4.45,8.92,9.02,13.45,13.46.24.23,1.89,1.68,1.86,1.85-3.29,3.47-8.9,3.76-12.68.89-11.09,5.05-24.17.11-29.07-10.98-5.53-12.51,1.65-26.92,14.85-30.07,10.31-2.46,20.71,2.78,25.02,12.34,2.94,6.52,2.43,14.19-1.29,20.28Z"/>
      <path class="cls-1" d="M56.42,167.82c18.37-.99,29.87,19.55,19.08,34.54-9.34,12.99-29.17,11.75-36.86-2.26-7.66-13.96,1.92-31.42,17.78-32.28ZM56.63,177.59c-6.43.47-11.3,6.36-10.95,12.73.53,9.52,11.52,14.78,19.25,9.13,9.86-7.21,4.1-22.77-8.3-21.86Z"/>
      <path class="cls-2" d="M18.8,184.81c4.07-.55,3.96-6.78.06-7.23-2.78-.32-6.15.22-8.99,0-5.3-.02-9.65-4.14-9.87-9.46,0-.21,0-.32.24-.32h18.42c11.05.56,16.92,13.28,9.73,21.89-1.72,2.06-4,3.49-6.53,4.36l14.41,14.4s.07.09.07.14c0,.32-2,1.58-2.38,1.77-3.71,1.88-7.9,1.24-10.98-1.49-4.46-3.95-8.47-8.85-12.89-12.9l-.32-.21v15.63c0,.15-.54.11-.67.1C4.18,211.29.1,206.87,0,201.99v-17.18h18.8Z"/>
      <path class="cls-1" d="M153.96,201.74c0,4.98-3.94,9.26-8.89,9.7h-15.22s21.68-43.5,21.68-43.5l21.82,43.57c-2.76-.1-5.6.34-8.26-.56-1.71-.58-3.31-1.61-4.35-3.1-3.12-6.04-6.08-12.17-9.11-18.26l-5.9,12.16h8.22Z"/>
      <path class="cls-2" d="M185.44,211.44c-2.27-.04-4.47-.81-6.22-2.25-1.9-1.57-3.31-4.16-3.48-6.64-.26-3.78.22-7.82-.03-11.63l-13.32-23.08,6.36-.04c3.02.27,5.65,1.92,7.3,4.43,1.56,2.37,2.82,5.12,4.34,7.54.1.14.19.19.29.02,1.37-2.32,2.63-4.77,4.05-7.05,1.14-1.84,2.4-3.18,4.41-4.09,3.03-1.37,6.35-.7,9.58-.85-.44.91-.96,1.78-1.46,2.65-3.91,6.8-7.87,13.58-11.82,20.37v20.62Z"/>
    </g>
    <g>
      <path class="cls-1" d="M117.34,24.65c-3.01-6.89-7.23-12.97-12.37-18.03,35.84-7.41,71.55,11.17,86.53,44.41,10.45,23.19,8.65,50.44-4.57,72.1-12.53-3.81-22.54-16.49-23.45-29.59-.3-4.4.49-8.87.25-13.24-1.28-22.59-19.94-40.34-42.1-40.81-.74-5-2.16-9.98-4.29-14.84Z"/>
      <path class="cls-1" d="M198.19,149.97c-11.7,12.35-31.65,13.38-45.09,3.15-8.89,4.05-18.15,6.29-27.35,6.87,1.35-.75,3.55-2.13,5.4-3.41,3.2-2.21,8.03-5.56,8.04-11.52,0-2.81-1.1-5.49-3.1-7.53l-12.07-12.07c.25-.02-27.73-28.89-27.73-28.89,12.52-12.92,34.33-13.26,47.46-1.03,16.07,15.81,31.72,32.07,47.83,47.85.85.83,6.71,5.98,6.61,6.58Z"/>
      <path class="cls-2" d="M66.84,60.47c14.48-1.96,14.07-24.09.22-25.71-9.89-1.15-21.86.8-31.96-.02C16.27,34.67.8,20.01,0,1.13-.03.39.04-.02.88,0h65.48c39.27,1.98,60.16,47.2,34.58,77.83-6.12,7.32-14.23,12.41-23.23,15.49l51.23,51.2c.14.14.24.31.24.51,0,1.15-7.11,5.62-8.45,6.3-13.19,6.69-28.09,4.39-39.03-5.3-15.85-14.05-30.12-31.48-45.83-45.85l-1.13-.74v55.59c0,.52-1.92.39-2.37.37C14.85,154.64.36,138.91,0,121.57v-61.09h66.84Z"/>
    </g>
  </g>
</svg>